<svg xmlns="http://www.w3.org/2000/svg" xmlns:xlink="http://www.w3.org/1999/xlink" width="1920" zoomAndPan="magnify" viewBox="0 0 1440 809.999993" height="1080" preserveAspectRatio="xMidYMid meet" version="1.0"><defs><g/><clipPath id="fe798f2501"><path d="M 296.101562 17.550781 L 1071 17.550781 L 1071 792.449219 L 296.101562 792.449219 Z M 296.101562 17.550781 " clip-rule="nonzero"/></clipPath><clipPath id="bbb1153c8c"><path d="M 683.550781 17.550781 C 469.566406 17.550781 296.101562 191.019531 296.101562 405 C 296.101562 618.984375 469.566406 792.449219 683.550781 792.449219 C 897.53125 792.449219 1071 618.984375 1071 405 C 1071 191.019531 897.53125 17.550781 683.550781 17.550781 " clip-rule="nonzero"/></clipPath><clipPath id="58fea5f508"><path d="M 362.921875 84.375 L 1004.175781 84.375 L 1004.175781 725.628906 L 362.921875 725.628906 Z M 362.921875 84.375 " clip-rule="nonzero"/></clipPath><clipPath id="015d984624"><path d="M 683.550781 84.375 C 506.472656 84.375 362.921875 227.921875 362.921875 405 C 362.921875 582.078125 506.472656 725.628906 683.550781 725.628906 C 860.628906 725.628906 1004.175781 582.078125 1004.175781 405 C 1004.175781 227.921875 860.628906 84.375 683.550781 84.375 " clip-rule="nonzero"/></clipPath></defs><g clip-path="url(#fe798f2501)"><g clip-path="url(#bbb1153c8c)"><path fill="#d81919" d="M 296.101562 17.550781 L 1071 17.550781 L 1071 792.449219 L 296.101562 792.449219 Z M 296.101562 17.550781 " fill-opacity="1" fill-rule="nonzero"/></g></g><g clip-path="url(#58fea5f508)"><g clip-path="url(#015d984624)"><path fill="#ffffff" d="M 362.921875 84.375 L 1004.175781 84.375 L 1004.175781 725.628906 L 362.921875 725.628906 Z M 362.921875 84.375 " fill-opacity="1" fill-rule="nonzero"/></g></g><g fill="#000000" fill-opacity="1"><g transform="translate(436.86896, 576.542906)"><g><path d="M 50.359375 -282.53125 C 45.523438 -276.550781 38.769531 -271.710938 30.09375 -268.015625 C 21.414062 -264.316406 13.09375 -262.46875 5.125 -262.46875 L 5.125 -320.9375 C 17.644531 -322.925781 30.09375 -327.90625 42.46875 -335.875 C 54.84375 -343.84375 63.734375 -354.226562 69.140625 -367.03125 L 128.03125 -367.03125 L 128.03125 0 L 50.359375 0 Z M 50.359375 -282.53125 "/></g></g></g><g fill="#000000" fill-opacity="1"><g transform="translate(578.13113, 576.542906)"><g><path d="M 50.359375 -282.53125 C 45.523438 -276.550781 38.769531 -271.710938 30.09375 -268.015625 C 21.414062 -264.316406 13.09375 -262.46875 5.125 -262.46875 L 5.125 -320.9375 C 17.644531 -322.925781 30.09375 -327.90625 42.46875 -335.875 C 54.84375 -343.84375 63.734375 -354.226562 69.140625 -367.03125 L 128.03125 -367.03125 L 128.03125 0 L 50.359375 0 Z M 50.359375 -282.53125 "/></g></g></g><g fill="#000000" fill-opacity="1"><g transform="translate(719.3933, 576.542906)"><g><path d="M 105.421875 3.421875 C 74.398438 3.421875 50.492188 -5.328125 33.703125 -22.828125 C 16.921875 -40.328125 8.53125 -65.296875 8.53125 -97.734375 L 8.53125 -263.328125 C 8.53125 -298.035156 16.640625 -324.492188 32.859375 -342.703125 C 49.078125 -360.910156 73.265625 -370.015625 105.421875 -370.015625 C 137.847656 -370.015625 162.171875 -360.910156 178.390625 -342.703125 C 194.609375 -324.492188 202.71875 -298.035156 202.71875 -263.328125 L 202.71875 -97.734375 C 202.71875 -65.015625 194.320312 -39.972656 177.53125 -22.609375 C 160.75 -5.253906 136.710938 3.421875 105.421875 3.421875 Z M 105.421875 -64.015625 C 110.828125 -64.015625 115.234375 -66.503906 118.640625 -71.484375 C 122.054688 -76.460938 123.765625 -82.367188 123.765625 -89.203125 L 123.765625 -270.15625 C 123.765625 -280.675781 122.554688 -288.710938 120.140625 -294.265625 C 117.722656 -299.816406 112.816406 -302.59375 105.421875 -302.59375 C 98.015625 -302.59375 93.171875 -299.816406 90.890625 -294.265625 C 88.617188 -288.710938 87.484375 -280.675781 87.484375 -270.15625 L 87.484375 -89.203125 C 87.484375 -82.367188 89.117188 -76.460938 92.390625 -71.484375 C 95.671875 -66.503906 100.015625 -64.015625 105.421875 -64.015625 Z M 105.421875 -64.015625 "/></g></g></g></svg>