<svg xmlns="http://www.w3.org/2000/svg" xmlns:xlink="http://www.w3.org/1999/xlink" width="1920" zoomAndPan="magnify" viewBox="0 0 1440 809.999993" height="1080" preserveAspectRatio="xMidYMid meet" version="1.0"><defs><g/><clipPath id="fe440a1d75"><path d="M 296.101562 17.550781 L 1071 17.550781 L 1071 792.449219 L 296.101562 792.449219 Z M 296.101562 17.550781 " clip-rule="nonzero"/></clipPath><clipPath id="5a7f646649"><path d="M 683.550781 17.550781 C 469.566406 17.550781 296.101562 191.015625 296.101562 405 C 296.101562 618.984375 469.566406 792.449219 683.550781 792.449219 C 897.53125 792.449219 1071 618.984375 1071 405 C 1071 191.015625 897.53125 17.550781 683.550781 17.550781 " clip-rule="nonzero"/></clipPath><clipPath id="e5f98d156e"><path d="M 362.921875 84.375 L 1004.175781 84.375 L 1004.175781 725.625 L 362.921875 725.625 Z M 362.921875 84.375 " clip-rule="nonzero"/></clipPath><clipPath id="6c529b1fbe"><path d="M 683.550781 84.375 C 506.472656 84.375 362.921875 227.921875 362.921875 405 C 362.921875 582.078125 506.472656 725.625 683.550781 725.625 C 860.628906 725.625 1004.175781 582.078125 1004.175781 405 C 1004.175781 227.921875 860.628906 84.375 683.550781 84.375 " clip-rule="nonzero"/></clipPath></defs><g clip-path="url(#fe440a1d75)"><g clip-path="url(#5a7f646649)"><path fill="#d81919" d="M 296.101562 17.550781 L 1071 17.550781 L 1071 792.449219 L 296.101562 792.449219 Z M 296.101562 17.550781 " fill-opacity="1" fill-rule="nonzero"/></g></g><g clip-path="url(#e5f98d156e)"><g clip-path="url(#6c529b1fbe)"><path fill="#ffffff" d="M 362.921875 84.375 L 1004.175781 84.375 L 1004.175781 725.625 L 362.921875 725.625 Z M 362.921875 84.375 " fill-opacity="1" fill-rule="nonzero"/></g></g><g fill="#000000" fill-opacity="1"><g transform="translate(402.088786, 576.542349)"><g><path d="M 50.359375 -282.53125 C 45.523438 -276.550781 38.769531 -271.710938 30.09375 -268.015625 C 21.414062 -264.316406 13.09375 -262.46875 5.125 -262.46875 L 5.125 -320.9375 C 17.644531 -322.925781 30.09375 -327.90625 42.46875 -335.875 C 54.84375 -343.84375 63.734375 -354.226562 69.140625 -367.03125 L 128.03125 -367.03125 L 128.03125 0 L 50.359375 0 Z M 50.359375 -282.53125 "/></g></g></g><g fill="#000000" fill-opacity="1"><g transform="translate(543.350956, 576.542349)"><g><path d="M 100.71875 4.265625 C 68.570312 4.265625 45.097656 -4.195312 30.296875 -21.125 C 15.503906 -38.050781 8.109375 -63.875 8.109375 -98.59375 L 8.109375 -137 L 83.21875 -137 L 83.21875 -98.59375 C 83.21875 -87.488281 84.640625 -78.878906 87.484375 -72.765625 C 90.335938 -66.648438 96.03125 -63.59375 104.5625 -63.59375 C 110.539062 -63.59375 114.878906 -65.722656 117.578125 -69.984375 C 120.273438 -74.253906 121.910156 -79.304688 122.484375 -85.140625 C 123.054688 -90.972656 123.34375 -99.4375 123.34375 -110.53125 L 123.34375 -119.5 C 123.34375 -151.082031 112.957031 -166.875 92.1875 -166.875 C 88.488281 -166.875 86.066406 -166.726562 84.921875 -166.4375 L 84.921875 -232.171875 C 98.015625 -232.171875 107.832031 -235.085938 114.375 -240.921875 C 120.914062 -246.753906 124.1875 -256.070312 124.1875 -268.875 C 124.1875 -289.644531 118.210938 -300.03125 106.265625 -300.03125 C 98.867188 -300.03125 94.101562 -298.179688 91.96875 -294.484375 C 89.832031 -290.785156 88.410156 -286.085938 87.703125 -280.390625 C 86.992188 -274.703125 86.492188 -270.578125 86.203125 -268.015625 L 86.203125 -256.921875 L 10.25 -256.921875 L 9.8125 -269.71875 C 10.101562 -303.289062 18.070312 -327.972656 33.71875 -343.765625 C 49.363281 -359.554688 73.40625 -367.453125 105.84375 -367.453125 C 168.15625 -367.453125 199.3125 -334.875 199.3125 -269.71875 C 199.3125 -250.65625 196.75 -235.503906 191.625 -224.265625 C 186.5 -213.035156 177.679688 -205.144531 165.171875 -200.59375 C 175.410156 -195.46875 183.019531 -189.132812 188 -181.59375 C 192.976562 -174.050781 196.25 -164.875 197.8125 -154.0625 C 199.375 -143.25 200.15625 -128.738281 200.15625 -110.53125 C 200.15625 -72.695312 192.257812 -44.101562 176.46875 -24.75 C 160.675781 -5.40625 135.425781 4.265625 100.71875 4.265625 Z M 100.71875 4.265625 "/></g></g></g><g fill="#000000" fill-opacity="1"><g transform="translate(754.177353, 576.542349)"><g><path d="M 105.421875 3.421875 C 74.398438 3.421875 50.492188 -5.328125 33.703125 -22.828125 C 16.921875 -40.328125 8.53125 -65.296875 8.53125 -97.734375 L 8.53125 -263.328125 C 8.53125 -298.035156 16.640625 -324.492188 32.859375 -342.703125 C 49.078125 -360.910156 73.265625 -370.015625 105.421875 -370.015625 C 137.847656 -370.015625 162.171875 -360.910156 178.390625 -342.703125 C 194.609375 -324.492188 202.71875 -298.035156 202.71875 -263.328125 L 202.71875 -97.734375 C 202.71875 -65.015625 194.320312 -39.972656 177.53125 -22.609375 C 160.75 -5.253906 136.710938 3.421875 105.421875 3.421875 Z M 105.421875 -64.015625 C 110.828125 -64.015625 115.234375 -66.503906 118.640625 -71.484375 C 122.054688 -76.460938 123.765625 -82.367188 123.765625 -89.203125 L 123.765625 -270.15625 C 123.765625 -280.675781 122.554688 -288.710938 120.140625 -294.265625 C 117.722656 -299.816406 112.816406 -302.59375 105.421875 -302.59375 C 98.015625 -302.59375 93.171875 -299.816406 90.890625 -294.265625 C 88.617188 -288.710938 87.484375 -280.675781 87.484375 -270.15625 L 87.484375 -89.203125 C 87.484375 -82.367188 89.117188 -76.460938 92.390625 -71.484375 C 95.671875 -66.503906 100.015625 -64.015625 105.421875 -64.015625 Z M 105.421875 -64.015625 "/></g></g></g></svg>