<svg xmlns="http://www.w3.org/2000/svg" xmlns:xlink="http://www.w3.org/1999/xlink" width="1920" zoomAndPan="magnify" viewBox="0 0 1440 809.999993" height="1080" preserveAspectRatio="xMidYMid meet" version="1.0"><defs><g/><clipPath id="4d4520db4a"><path d="M 296.101562 17.550781 L 1071 17.550781 L 1071 792.449219 L 296.101562 792.449219 Z M 296.101562 17.550781 " clip-rule="nonzero"/></clipPath><clipPath id="084430881e"><path d="M 683.550781 17.550781 C 469.566406 17.550781 296.101562 191.015625 296.101562 405 C 296.101562 618.984375 469.566406 792.449219 683.550781 792.449219 C 897.53125 792.449219 1071 618.984375 1071 405 C 1071 191.015625 897.53125 17.550781 683.550781 17.550781 " clip-rule="nonzero"/></clipPath><clipPath id="cd7eadaeb2"><path d="M 362.921875 84.375 L 1004.175781 84.375 L 1004.175781 725.625 L 362.921875 725.625 Z M 362.921875 84.375 " clip-rule="nonzero"/></clipPath><clipPath id="c37906e8fd"><path d="M 683.550781 84.375 C 506.472656 84.375 362.921875 227.921875 362.921875 405 C 362.921875 582.078125 506.472656 725.625 683.550781 725.625 C 860.628906 725.625 1004.175781 582.078125 1004.175781 405 C 1004.175781 227.921875 860.628906 84.375 683.550781 84.375 " clip-rule="nonzero"/></clipPath></defs><g clip-path="url(#4d4520db4a)"><g clip-path="url(#084430881e)"><path fill="#d81919" d="M 296.101562 17.550781 L 1071 17.550781 L 1071 792.449219 L 296.101562 792.449219 Z M 296.101562 17.550781 " fill-opacity="1" fill-rule="nonzero"/></g></g><g clip-path="url(#cd7eadaeb2)"><g clip-path="url(#c37906e8fd)"><path fill="#ffffff" d="M 362.921875 84.375 L 1004.175781 84.375 L 1004.175781 725.625 L 362.921875 725.625 Z M 362.921875 84.375 " fill-opacity="1" fill-rule="nonzero"/></g></g><g fill="#000000" fill-opacity="1"><g transform="translate(472.71963, 576.542349)"><g><path d="M 105.421875 5.125 C 76.109375 5.125 52.773438 -2.054688 35.421875 -16.421875 C 18.066406 -30.796875 9.390625 -52.066406 9.390625 -80.234375 L 9.390625 -134.4375 L 85.78125 -134.4375 L 85.78125 -103.28125 C 85.78125 -90.757812 87.0625 -80.941406 89.625 -73.828125 C 92.1875 -66.710938 97.453125 -63.15625 105.421875 -63.15625 C 112.816406 -63.15625 117.863281 -65.570312 120.5625 -70.40625 C 123.269531 -75.25 124.625 -82.367188 124.625 -91.765625 L 124.625 -163.890625 C 124.625 -175.546875 123.410156 -184.859375 120.984375 -191.828125 C 118.566406 -198.804688 113.519531 -202.296875 105.84375 -202.296875 C 91.894531 -202.296875 84.921875 -192.195312 84.921875 -172 L 17.921875 -172 L 17.921875 -367.03125 L 192.484375 -367.03125 L 192.484375 -298.3125 L 87.484375 -298.3125 L 87.484375 -246.671875 C 91.179688 -251.515625 96.160156 -255.5 102.421875 -258.625 C 108.679688 -261.757812 115.796875 -263.328125 123.765625 -263.328125 C 154.492188 -263.328125 175.476562 -252.515625 186.71875 -230.890625 C 197.957031 -209.265625 203.578125 -178.675781 203.578125 -139.125 C 203.578125 -106.40625 201.226562 -79.875 196.53125 -59.53125 C 191.832031 -39.1875 182.367188 -23.320312 168.140625 -11.9375 C 153.921875 -0.5625 133.015625 5.125 105.421875 5.125 Z M 105.421875 5.125 "/></g></g></g><g fill="#000000" fill-opacity="1"><g transform="translate(683.546027, 576.542349)"><g><path d="M 105.421875 3.421875 C 74.398438 3.421875 50.492188 -5.328125 33.703125 -22.828125 C 16.921875 -40.328125 8.53125 -65.296875 8.53125 -97.734375 L 8.53125 -263.328125 C 8.53125 -298.035156 16.640625 -324.492188 32.859375 -342.703125 C 49.078125 -360.910156 73.265625 -370.015625 105.421875 -370.015625 C 137.847656 -370.015625 162.171875 -360.910156 178.390625 -342.703125 C 194.609375 -324.492188 202.71875 -298.035156 202.71875 -263.328125 L 202.71875 -97.734375 C 202.71875 -65.015625 194.320312 -39.972656 177.53125 -22.609375 C 160.75 -5.253906 136.710938 3.421875 105.421875 3.421875 Z M 105.421875 -64.015625 C 110.828125 -64.015625 115.234375 -66.503906 118.640625 -71.484375 C 122.054688 -76.460938 123.765625 -82.367188 123.765625 -89.203125 L 123.765625 -270.15625 C 123.765625 -280.675781 122.554688 -288.710938 120.140625 -294.265625 C 117.722656 -299.816406 112.816406 -302.59375 105.421875 -302.59375 C 98.015625 -302.59375 93.171875 -299.816406 90.890625 -294.265625 C 88.617188 -288.710938 87.484375 -280.675781 87.484375 -270.15625 L 87.484375 -89.203125 C 87.484375 -82.367188 89.117188 -76.460938 92.390625 -71.484375 C 95.671875 -66.503906 100.015625 -64.015625 105.421875 -64.015625 Z M 105.421875 -64.015625 "/></g></g></g></svg>