<svg xmlns="http://www.w3.org/2000/svg" xmlns:xlink="http://www.w3.org/1999/xlink" width="1920" zoomAndPan="magnify" viewBox="0 0 1440 809.999993" height="1080" preserveAspectRatio="xMidYMid meet" version="1.0"><defs><g/><clipPath id="9e523e3a1c"><path d="M 296.101562 17.550781 L 1071 17.550781 L 1071 792.449219 L 296.101562 792.449219 Z M 296.101562 17.550781 " clip-rule="nonzero"/></clipPath><clipPath id="d17c1d8bf0"><path d="M 683.550781 17.550781 C 469.566406 17.550781 296.101562 191.015625 296.101562 405 C 296.101562 618.984375 469.566406 792.449219 683.550781 792.449219 C 897.53125 792.449219 1071 618.984375 1071 405 C 1071 191.015625 897.53125 17.550781 683.550781 17.550781 " clip-rule="nonzero"/></clipPath><clipPath id="1eb1510cf0"><path d="M 362.921875 84.375 L 1004.175781 84.375 L 1004.175781 725.628906 L 362.921875 725.628906 Z M 362.921875 84.375 " clip-rule="nonzero"/></clipPath><clipPath id="3edb6bd0a6"><path d="M 683.550781 84.375 C 506.472656 84.375 362.921875 227.921875 362.921875 405 C 362.921875 582.078125 506.472656 725.628906 683.550781 725.628906 C 860.628906 725.628906 1004.175781 582.078125 1004.175781 405 C 1004.175781 227.921875 860.628906 84.375 683.550781 84.375 " clip-rule="nonzero"/></clipPath></defs><g clip-path="url(#9e523e3a1c)"><g clip-path="url(#d17c1d8bf0)"><path fill="#d81919" d="M 296.101562 17.550781 L 1071 17.550781 L 1071 792.449219 L 296.101562 792.449219 Z M 296.101562 17.550781 " fill-opacity="1" fill-rule="nonzero"/></g></g><g clip-path="url(#1eb1510cf0)"><g clip-path="url(#3edb6bd0a6)"><path fill="#ffffff" d="M 362.921875 84.375 L 1004.175781 84.375 L 1004.175781 725.628906 L 362.921875 725.628906 Z M 362.921875 84.375 " fill-opacity="1" fill-rule="nonzero"/></g></g><g fill="#000000" fill-opacity="1"><g transform="translate(472.71963, 576.542553)"><g><path d="M 105.421875 3.84375 C 71.847656 3.84375 47.445312 -5.6875 32.21875 -24.75 C 17 -43.8125 9.390625 -71.976562 9.390625 -109.25 L 9.390625 -133.578125 C 9.390625 -152.929688 11.734375 -168.296875 16.421875 -179.671875 C 21.117188 -191.054688 29.300781 -199.59375 40.96875 -205.28125 C 29.875 -209.832031 21.90625 -217.367188 17.0625 -227.890625 C 12.226562 -238.421875 9.8125 -251.941406 9.8125 -268.453125 L 9.8125 -278.265625 C 9.8125 -310.128906 17.847656 -333.597656 33.921875 -348.671875 C 50.003906 -363.753906 73.835938 -371.296875 105.421875 -371.296875 C 137.566406 -371.296875 161.535156 -363.613281 177.328125 -348.25 C 193.117188 -332.882812 201.015625 -308.5625 201.015625 -275.28125 C 201.015625 -256.5 198.738281 -241.34375 194.1875 -229.8125 C 189.632812 -218.289062 181.523438 -209.972656 169.859375 -204.859375 C 182.941406 -198.597656 191.472656 -188.851562 195.453125 -175.625 C 199.441406 -162.394531 201.4375 -143.398438 201.4375 -118.640625 C 201.4375 -113.804688 201.296875 -110.675781 201.015625 -109.25 C 201.015625 -71.976562 193.472656 -43.8125 178.390625 -24.75 C 163.316406 -5.6875 138.992188 3.84375 105.421875 3.84375 Z M 105.421875 -236.4375 C 118.222656 -236.4375 124.625 -248.101562 124.625 -271.4375 C 124.625 -280.539062 123.128906 -288.222656 120.140625 -294.484375 C 117.148438 -300.742188 112.242188 -303.875 105.421875 -303.875 C 98.585938 -303.875 93.675781 -300.742188 90.6875 -294.484375 C 87.695312 -288.222656 86.203125 -280.539062 86.203125 -271.4375 C 86.203125 -248.101562 92.609375 -236.4375 105.421875 -236.4375 Z M 105.421875 -68.71875 C 118.785156 -68.71875 125.46875 -80.804688 125.46875 -104.984375 L 125.046875 -123.34375 C 125.046875 -137.28125 123.90625 -148.515625 121.625 -157.046875 C 119.351562 -165.585938 113.953125 -169.859375 105.421875 -169.859375 C 98.304688 -169.859375 93.179688 -166.085938 90.046875 -158.546875 C 86.921875 -151.003906 85.359375 -141.6875 85.359375 -130.59375 C 85.359375 -125.757812 85.5 -122.203125 85.78125 -119.921875 L 85.78125 -116.515625 L 85.359375 -104.984375 C 85.359375 -80.804688 92.046875 -68.71875 105.421875 -68.71875 Z M 105.421875 -68.71875 "/></g></g></g><g fill="#000000" fill-opacity="1"><g transform="translate(683.546027, 576.542553)"><g><path d="M 105.421875 3.421875 C 74.398438 3.421875 50.492188 -5.328125 33.703125 -22.828125 C 16.921875 -40.328125 8.53125 -65.296875 8.53125 -97.734375 L 8.53125 -263.328125 C 8.53125 -298.035156 16.640625 -324.492188 32.859375 -342.703125 C 49.078125 -360.910156 73.265625 -370.015625 105.421875 -370.015625 C 137.847656 -370.015625 162.171875 -360.910156 178.390625 -342.703125 C 194.609375 -324.492188 202.71875 -298.035156 202.71875 -263.328125 L 202.71875 -97.734375 C 202.71875 -65.015625 194.320312 -39.972656 177.53125 -22.609375 C 160.75 -5.253906 136.710938 3.421875 105.421875 3.421875 Z M 105.421875 -64.015625 C 110.828125 -64.015625 115.234375 -66.503906 118.640625 -71.484375 C 122.054688 -76.460938 123.765625 -82.367188 123.765625 -89.203125 L 123.765625 -270.15625 C 123.765625 -280.675781 122.554688 -288.710938 120.140625 -294.265625 C 117.722656 -299.816406 112.816406 -302.59375 105.421875 -302.59375 C 98.015625 -302.59375 93.171875 -299.816406 90.890625 -294.265625 C 88.617188 -288.710938 87.484375 -280.675781 87.484375 -270.15625 L 87.484375 -89.203125 C 87.484375 -82.367188 89.117188 -76.460938 92.390625 -71.484375 C 95.671875 -66.503906 100.015625 -64.015625 105.421875 -64.015625 Z M 105.421875 -64.015625 "/></g></g></g></svg>