<svg xmlns="http://www.w3.org/2000/svg" xmlns:xlink="http://www.w3.org/1999/xlink" width="1920" zoomAndPan="magnify" viewBox="0 0 1440 809.999993" height="1080" preserveAspectRatio="xMidYMid meet" version="1.0"><defs><g/><clipPath id="c141272068"><path d="M 296.101562 17.550781 L 1071 17.550781 L 1071 792.449219 L 296.101562 792.449219 Z M 296.101562 17.550781 " clip-rule="nonzero"/></clipPath><clipPath id="c0b9d8bd2b"><path d="M 683.550781 17.550781 C 469.566406 17.550781 296.101562 191.015625 296.101562 405 C 296.101562 618.984375 469.566406 792.449219 683.550781 792.449219 C 897.53125 792.449219 1071 618.984375 1071 405 C 1071 191.015625 897.53125 17.550781 683.550781 17.550781 " clip-rule="nonzero"/></clipPath><clipPath id="35232c4c87"><path d="M 362.921875 84.371094 L 1004.175781 84.371094 L 1004.175781 725.625 L 362.921875 725.625 Z M 362.921875 84.371094 " clip-rule="nonzero"/></clipPath><clipPath id="8878e0f584"><path d="M 683.550781 84.371094 C 506.472656 84.371094 362.921875 227.921875 362.921875 405 C 362.921875 582.078125 506.472656 725.625 683.550781 725.625 C 860.628906 725.625 1004.175781 582.078125 1004.175781 405 C 1004.175781 227.921875 860.628906 84.371094 683.550781 84.371094 " clip-rule="nonzero"/></clipPath></defs><g clip-path="url(#c141272068)"><g clip-path="url(#c0b9d8bd2b)"><path fill="#d81919" d="M 296.101562 17.550781 L 1071 17.550781 L 1071 792.449219 L 296.101562 792.449219 Z M 296.101562 17.550781 " fill-opacity="1" fill-rule="nonzero"/></g></g><g clip-path="url(#35232c4c87)"><g clip-path="url(#8878e0f584)"><path fill="#ffffff" d="M 362.921875 84.371094 L 1004.175781 84.371094 L 1004.175781 725.625 L 362.921875 725.625 Z M 362.921875 84.371094 " fill-opacity="1" fill-rule="nonzero"/></g></g><g fill="#000000" fill-opacity="1"><g transform="translate(470.586631, 576.542438)"><g><path d="M 104.140625 3.421875 C 88.203125 3.421875 73.617188 0.644531 60.390625 -4.90625 C 47.160156 -10.457031 36.5625 -18.640625 28.59375 -29.453125 C 20.625 -40.265625 16.640625 -53.351562 16.640625 -68.71875 L 16.640625 -107.96875 L 87.0625 -107.96875 L 87.0625 -100.71875 C 87.0625 -88.488281 88.195312 -78.816406 90.46875 -71.703125 C 92.75 -64.585938 97.734375 -61.03125 105.421875 -61.03125 C 113.378906 -61.03125 118.992188 -63.234375 122.265625 -67.640625 C 125.546875 -72.054688 127.1875 -78.671875 127.1875 -87.484375 L 127.1875 -160.890625 C 123.769531 -154.347656 118.503906 -149.082031 111.390625 -145.09375 C 104.273438 -141.113281 95.878906 -139.125 86.203125 -139.125 C 66.285156 -139.125 50.847656 -143.109375 39.890625 -151.078125 C 28.941406 -159.046875 21.332031 -170.851562 17.0625 -186.5 C 12.800781 -202.144531 10.671875 -222.773438 10.671875 -248.390625 C 10.671875 -287.367188 18.066406 -317.382812 32.859375 -338.4375 C 47.660156 -359.488281 72.128906 -370.015625 106.265625 -370.015625 C 131.304688 -370.015625 151.082031 -365.742188 165.59375 -357.203125 C 180.101562 -348.671875 190.34375 -335.867188 196.3125 -318.796875 C 202.289062 -301.734375 205.28125 -279.546875 205.28125 -252.234375 L 205.28125 -153.21875 C 205.28125 -115.375 203.003906 -85.566406 198.453125 -63.796875 C 193.898438 -42.035156 184.367188 -25.390625 169.859375 -13.859375 C 155.347656 -2.335938 133.441406 3.421875 104.140625 3.421875 Z M 107.96875 -204 C 120.78125 -204 127.1875 -212.675781 127.1875 -230.03125 L 127.1875 -275.703125 C 127.1875 -293.628906 121.066406 -302.59375 108.828125 -302.59375 C 101.148438 -302.59375 96.242188 -299.53125 94.109375 -293.40625 C 91.972656 -287.289062 90.90625 -277.40625 90.90625 -263.75 L 90.90625 -233.875 C 90.90625 -213.957031 96.59375 -204 107.96875 -204 Z M 107.96875 -204 "/></g></g></g><g fill="#000000" fill-opacity="1"><g transform="translate(685.680764, 576.542438)"><g><path d="M 105.421875 3.421875 C 74.398438 3.421875 50.492188 -5.328125 33.703125 -22.828125 C 16.921875 -40.328125 8.53125 -65.296875 8.53125 -97.734375 L 8.53125 -263.328125 C 8.53125 -298.035156 16.640625 -324.492188 32.859375 -342.703125 C 49.078125 -360.910156 73.265625 -370.015625 105.421875 -370.015625 C 137.847656 -370.015625 162.171875 -360.910156 178.390625 -342.703125 C 194.609375 -324.492188 202.71875 -298.035156 202.71875 -263.328125 L 202.71875 -97.734375 C 202.71875 -65.015625 194.320312 -39.972656 177.53125 -22.609375 C 160.75 -5.253906 136.710938 3.421875 105.421875 3.421875 Z M 105.421875 -64.015625 C 110.828125 -64.015625 115.234375 -66.503906 118.640625 -71.484375 C 122.054688 -76.460938 123.765625 -82.367188 123.765625 -89.203125 L 123.765625 -270.15625 C 123.765625 -280.675781 122.554688 -288.710938 120.140625 -294.265625 C 117.722656 -299.816406 112.816406 -302.59375 105.421875 -302.59375 C 98.015625 -302.59375 93.171875 -299.816406 90.890625 -294.265625 C 88.617188 -288.710938 87.484375 -280.675781 87.484375 -270.15625 L 87.484375 -89.203125 C 87.484375 -82.367188 89.117188 -76.460938 92.390625 -71.484375 C 95.671875 -66.503906 100.015625 -64.015625 105.421875 -64.015625 Z M 105.421875 -64.015625 "/></g></g></g></svg>